<?xml version="1.0" encoding="utf-8"?>
<!-- Generator: Adobe Illustrator 28.0.0, SVG Export Plug-In . SVG Version: 6.00 Build 0)  -->
<svg version="1.1"
	 id="svg6" xmlns:inkscape="http://www.inkscape.org/namespaces/inkscape" xmlns:rdf="http://www.w3.org/1999/02/22-rdf-syntax-ns#" xmlns:svg="http://www.w3.org/2000/svg" xmlns:dc="http://purl.org/dc/elements/1.1/" xmlns:cc="http://creativecommons.org/ns#" xmlns:sodipodi="http://sodipodi.sourceforge.net/DTD/sodipodi-0.dtd" inkscape:version="0.91 r13725" sodipodi:docname="Paris logo 2019.svg"
	 xmlns="http://www.w3.org/2000/svg" xmlns:xlink="http://www.w3.org/1999/xlink" x="0px" y="0px" viewBox="0 0 600 527.4"
	 style="enable-background:new 0 0 600 527.4;" xml:space="preserve">
<style type="text/css">
	.st0{fill:#002542;}
</style>
<sodipodi:namedview  bordercolor="#666666" borderopacity="1" fit-margin-bottom="0" fit-margin-left="0" fit-margin-right="0" fit-margin-top="0" gridtolerance="10" guidetolerance="10" id="namedview8" inkscape:current-layer="svg6" inkscape:cx="368.21696" inkscape:cy="526.61287" inkscape:pageopacity="0" inkscape:pageshadow="2" inkscape:window-height="705" inkscape:window-maximized="1" inkscape:window-width="1366" inkscape:window-x="-8" inkscape:window-y="-8" inkscape:zoom="0.47990354" objecttolerance="10" pagecolor="#ffffff" showgrid="false">
	</sodipodi:namedview>
<path id="path4" inkscape:connector-curvature="0" sodipodi:nodetypes="sccccssssccsssccccccccccccccccsccssscccccccccccccccssccsssssccscc" class="st0" d="
	M56.4,375.3H0v149.1h34.1v-46.8h22.4c29.4,0,52.1-22.8,52.1-51.1S85.9,375.3,56.4,375.3z M56.4,445.6H34v-38.3h22.4
	c10.6,0,18.1,8.2,18.1,19.1C74.5,437.4,67,445.6,56.4,445.6z M420.6,375.3h34.1v149.1h-34.1V375.3z M384.6,426.5
	c0.1-28.3-22.9-51.2-51.1-51.1h-59.6v149.1h34.1v-46.8h17.3l26.9,46.8h36.6l-31.3-53.9C374.1,462.8,384.6,444.8,384.6,426.5z
	 M333.7,447.9h-25.6v-40.6h25.6c9.4,0,17,8.7,17,20.3C350.6,439.2,343.1,447.9,333.7,447.9z M158.8,375.3l-50.6,149.1h37.3l8.2-26.2
	c17.5,4.4,35.9,4.4,53.4,0l8.4,26.2h37.3l-50.6-149.1H158.8z M180.4,471.7c-6,0-11.9-0.7-17.6-2.1l17.6-55.3l17.6,55.3
	C192.3,470.9,186.4,471.6,180.4,471.7L180.4,471.7z M557.8,437.2c-23.1-6.9-32.5-10.9-32.5-20.3c0-7.1,6.8-11.2,16-11.2
	c14.8,0,20.9,7.9,26.1,15.3l28.4-15c-4.8-9.4-18.6-33.6-54.4-33.6c-25.2,0-50,16-50,45.4c0,35.1,33.5,41.7,43.9,45.4
	c10.4,3.6,30.8,6.3,30.8,19c0,8.9-9.2,12.2-21.3,12.2c-13.4,0-24.1-7.4-30.7-18.8l-29,15.2c2.1,6.3,19.1,36.8,59.5,36.8
	c31.8,0,55.4-16.8,55.4-45.9C600,458.6,587.5,445.9,557.8,437.2L557.8,437.2z"/>
<g>
	<path class="st0" d="M260.1,93.9c0.6,0.3,1.3,0.7,1.9,0.8c3.7,0.6,7.4,1.3,11.2,1.6c16.8,1.3,33.7,2,50.5,1.9
		c9,0,18.1-0.2,27.1-1.2c5.9-0.6,11.7-1.5,17.3-3.7c6.8-2.7,10.2-7.6,10.7-14.8c0.4-6.8,0.4-13.7-0.7-20.4c-0.8-5-2.3-9.8-5.2-14.1
		c-2.9-4.4-6.9-7.3-11.9-8.8c-1.6-0.5-3.2-1.1-4.7-1.7c-0.2-0.1-0.4-0.3-0.8-0.7c0.5-0.2,0.9-0.4,1.2-0.4c0.6-0.1,1.3-0.2,1.9-0.2
		c6.8,0,13.7,0.4,20.3,2.1c8.5,2.2,13.7,7.6,15.5,16c0.9,4.5,1.5,9,2,13.5c1.2,10.4,3.4,20.6,6.1,30.6c2.5,9.4,5.7,18.6,10,27.3
		c1.3,2.6,2.9,5,4.7,7.3c3.1,3.9,7.4,5.6,12.3,5.9c5.1,0.3,10.1-0.5,15-1.5c10.4-2.3,20.8-2.1,31.2-0.1
		c19.8,3.8,37.8,11.8,53.9,24.1c7.3,5.6,13.8,11.9,18.4,19.9c4,7,6.7,14.5,8.6,22.3c8.4,35-2.5,72.6-28.4,97.6
		c-11.2,10.8-24.3,18.2-39.4,22.1c-11.8,3-23.7,3.3-35.7,2c-12.2-1.4-24-4.5-35.2-9.5c-10.6-4.7-20.2-10.7-28.4-19
		c-6.2-6.3-10.6-13.7-13.5-22c-2.9-8.2-4.6-16.7-5.5-25.4c-1.1-11-1-22,0.4-32.9c1.6-13,4.7-25.7,10.7-37.5c1.4-2.7,3-5.2,4.4-7.9
		c0.6-1,0.9-2.2,1.4-3.4c-1.3-0.5-2,0.1-2.6,0.6c-2.5,2.1-5,4.1-7.4,6.3c-11.4,10.9-22.2,22.4-32.8,34.1
		c-12.6,13.8-24.5,28.2-35.3,43.4c-3.8,5.3-7.2,10.8-10.7,16.2c-2.5,3.9-4.3,8.1-5.7,12.6c-1.5,4.9-3.5,9.7-6.2,14.1
		c-1.2,1.9-2.5,3.8-4.1,5.4c-2.8,2.8-5.8,1.9-7-1.8c-0.8-2.5-1-5-0.6-7.6c0.5-3.2,1.1-6.4,1.7-9.5c0.7-3.4,1.3-6.7,0.9-10.2
		c-0.6-6.1-4.7-9.6-10.8-9.2c-3.5,0.2-6.7,1.1-9.9,2.5c-7.6,3.3-14.2,8.1-20.3,13.5c-6.3,5.5-11.5,11.9-17.1,18
		c-10.1,10.9-21.6,19.9-35,26.5c-6.3,3.1-13,4.6-19.9,5.1c-16.2,1.3-31.5-2.2-46.3-8.6c-11-4.8-21-11.1-29.9-19
		c-10.7-9.5-18.7-20.7-23.6-34.2c-3.5-9.6-6.2-19.3-7.2-29.4c-2.2-21.9,2.2-42.3,15.2-60.4c7.3-10.2,16.7-18.1,27.6-24.2
		c11.3-6.4,23.5-10.2,36.3-12.2c7.6-1.2,15.2-1.6,22.9-1.7c14.3-0.1,28.6-1.2,42.7-3.6c3.2-0.5,6.3-1.3,9.5-2.1
		c7.1-1.6,11.9-6.1,15.1-12.5c2.6-5.2,3.3-10.6,1.7-16.2c-1.8-6.2-6.2-9.7-12.5-10.2c-3.2-0.3-6.4-0.2-9.3-1.7
		c-1.4-0.7-2.8-1.4-3.9-2.5c-1.1-1-1.9-2.3-2.5-3.7c-1-2.4-0.4-4.2,1.7-5.6c1.8-1.2,3.9-2.1,5.9-2.8c5.7-1.9,11.7-2.7,17.7-3.2
		c7.7-0.7,15.4-0.8,23.1-0.3c7.9,0.5,15.8,1.5,23.2,4.6c2,0.9,4,2.1,5.7,3.5c2.8,2.4,2.8,5.4,0,7.7c-1.7,1.5-3.8,2.7-5.9,3.6
		c-3,1.3-6.1,2.1-9.2,3.1c-0.9,0.3-1.7,0.7-2.6,1.1C260.1,93.5,260.1,93.7,260.1,93.9z M388.9,223.2c0.1,2.2,0.3,6.1,0.6,10.1
		c0.9,11.2,3.7,21.9,8.8,31.9c6.5,12.6,16,22.3,28.7,28.8c8.4,4.3,17.2,6.6,26.5,7.6c11.1,1.2,22.1,0.4,32.9-2.5
		c29-8,49.8-33.2,51.9-63c0.8-11.2-0.9-22-5-32.5c-4.5-11.6-11.6-21.4-20.4-30.1c-12-11.8-26.2-19.5-42.7-22.9
		c-7.6-1.6-15.2-2-22.8-0.2c-5.1,1.2-9.7,3.4-13.2,7.5c-1.9,2.1-2.4,4.5-2.1,7.2c0.4,3.3,1.2,6.5,2.4,9.6
		c3.6,9.7,8.8,18.5,14.7,26.9c2.8,3.9,5.6,7.8,8.2,11.8c3,4.5,5.8,9.1,7.6,14.2c0.5,1.5,0.9,3.1,1,4.7c0.1,1.7-1,2.5-2.6,2.1
		c-1.3-0.4-2.7-0.9-3.8-1.6c-2.6-1.8-5.1-3.6-7.4-5.7c-6.9-6.1-13-12.9-18.8-20c-4.2-5-8.5-9.8-13.4-14.1c-3.7-3.2-7.5-6.2-12.2-7.8
		c-5.7-2-10.4-0.2-13.4,5.1c-1.5,2.6-2.4,5.4-3.1,8.2C389.3,206,389.1,213.7,388.9,223.2z M74.2,228.4c0,11.5,2.8,21.9,8.2,31.6
		c9.8,17.6,24.3,30.4,42.2,39.3c12.5,6.2,25.9,7.5,39.6,4.6c12-2.5,22.5-8,32.1-15.4c8.7-6.6,15.9-14.7,22.8-23
		c1.8-2.1,3.4-4.4,4.7-6.9c1.8-3.2,1.1-5.5-1.9-7.7c-0.2-0.2-0.5-0.4-0.7-0.5c-3.3-1.9-6.7-3.7-10.4-4.6c-6.1-1.4-12.3-2.9-18.5-4
		c-7.2-1.3-14.5-2.2-21.9-2.4c-5.6-0.2-11.2-0.5-16.8-1c-2.6-0.2-5.1-0.9-7.6-1.8c-3.3-1.2-4.3-3.6-3.6-7c0.7-3.4,2.3-6.4,4.2-9.3
		c3.8-5.7,7.8-11.4,11.8-17c5.1-7.2,10.4-14.2,15.4-21.4c3.5-5.2,6.5-10.7,8.6-16.6c0.7-2.1,1.1-4.4,1.5-6.6
		c0.2-1.3-0.3-2.5-1.4-3.3c-1.5-1.1-3-2.3-4.6-3.1c-5.7-2.9-11.8-3.5-18.1-3.4c-8.8,0.2-17.2,2-25.5,4.9
		c-20.2,7.2-36.2,19.7-48.2,37.3C78.5,202.6,74.3,215.1,74.2,228.4z M324,119c-10.5,0.1-20.1,0.2-29.7,0.4
		c-6.6,0.1-13.2,0.3-19.7,1.4c-2.8,0.4-5.6,1-8.1,2.4c-2.4,1.3-3.7,3.3-3.6,6.1c0.1,1.7,0.2,3.4,0.7,5c3.6,12.3,7.3,24.5,11.8,36.5
		c2.9,7.8,6,15.4,10.3,22.5c2.1,3.5,4.5,6.9,7.7,9.6c4.5,3.8,9.6,5,15.4,3.3c3.8-1.2,7.2-3.2,10.4-5.5c5.9-4.2,11.1-9.3,16.1-14.5
		c9.8-10.2,18.7-21.2,27.6-32.1c4.4-5.4,8.6-10.9,12.6-16.6c1.6-2.2,2.8-4.8,3.7-7.4c1.3-3.5,0-6-3.3-7.5c-1.2-0.6-2.5-1-3.8-1.3
		c-5.6-1.3-11.4-1.6-17.1-1.7C344.3,119.2,333.7,119.1,324,119z M224.1,145.3c0.3,2.1,0.4,4.3,0.8,6.4c1.4,8,4.3,15.6,8.1,22.8
		c4.8,9.3,8.7,19,12.1,28.9c2,5.9,3.8,11.9,4.5,18.2c0.2,1.6,0.1,3.1,0.4,4.7c1.2,6.9,7,13.4,16.7,12c4.3-0.6,6.3-2.6,6.5-6.9
		c0.2-3.6-0.5-7-1.3-10.5c-2-8.5-4.7-16.7-7.5-24.9c-4.6-13.8-9.2-27.5-14.9-40.9c-2.4-5.5-4.8-11-8.3-16c-1.3-1.9-2.9-3.7-4.6-5.2
		c-2.7-2.3-5.5-2-8,0.5C225.4,137.5,223.8,141,224.1,145.3z M199.7,228.5c5.3,0,10.8-0.6,16.3-2.1c3.9-1.1,7.6-2.5,10.7-5.1
		c2.2-1.9,3.4-4.1,2.9-7c-0.3-1.7-0.5-3.4-1-5.1c-3.6-12.1-9.7-22.8-18.2-32.2c-0.8-0.9-1.7-1.7-2.7-2.5c-2.7-2.1-4.9-2.2-7.5,0
		c-1.6,1.3-3.1,2.9-4.3,4.5c-4,5.7-8,11.3-11.8,17.2c-2.8,4.4-5,9.1-6.6,14.1c-0.9,2.8-1.6,5.6-1.6,8.5c0,2.3,0.7,4.1,2.8,5.2
		c1.8,0.9,3.5,1.8,5.3,2.5C189,228.1,194.2,228.6,199.7,228.5z"/>
</g>
</svg>
