<svg version="1.2" xmlns="http://www.w3.org/2000/svg" viewBox="0 0 600 528" width="600" height="528">
	<title>logo_paris_cycle-svg</title>
	<style>
		.s0 { fill: #ffffff } 
	</style>
	<path id="path4" fill-rule="evenodd" class="s0" d="m108.6 426.5c0 28.3-22.7 51.1-52.1 51.1h-22.4v46.8h-34.1v-149.1h56.4c29.5 0 52.2 22.9 52.2 51.2zm-34.1-0.1c0-10.9-7.5-19.1-18.1-19.1h-22.4v38.3h22.4c10.6 0 18.1-8.2 18.1-19.2zm346.1-51.1h34.1v149.1h-34.1zm-63.1 95.3l31.3 53.9h-36.6l-26.9-46.8h-17.3v46.8h-34.1v-149.1h59.6c28.2-0.1 51.2 22.8 51.1 51.1 0 18.3-10.5 36.3-27.1 44.1zm-6.8-43c0-11.6-7.6-20.3-17-20.3h-25.6v40.6h25.6c9.4 0 16.9-8.7 17-20.3zm-148.5-52.3l50.6 149.1h-37.3l-8.4-26.2c-17.5 4.4-35.9 4.4-53.4 0l-8.2 26.2h-37.3l50.6-149.1zm-4.2 94.3l-17.6-55.3-17.6 55.3c5.7 1.4 11.6 2.1 17.6 2.1 6-0.1 11.9-0.8 17.6-2.1zm402 12.1c0 29.1-23.6 45.9-55.4 45.9-40.4 0-57.4-30.5-59.5-36.8l29-15.2c6.6 11.4 17.3 18.8 30.7 18.8 12.1 0 21.3-3.3 21.3-12.2 0-12.7-20.4-15.4-30.8-19-10.4-3.7-43.9-10.3-43.9-45.4 0-29.4 24.8-45.4 50-45.4 35.8 0 49.6 24.2 54.4 33.6l-28.4 15c-5.2-7.4-11.3-15.3-26.1-15.3-9.2 0-16 4.1-16 11.2 0 9.4 9.4 13.4 32.5 20.3 29.7 8.7 42.2 21.4 42.2 44.5z"/>
	<g id="Layer">
		<path id="Layer" fill-rule="evenodd" class="s0" d="m260.1 93.9c0.6 0.3 1.3 0.7 1.9 0.8 3.7 0.6 7.4 1.3 11.2 1.6 16.8 1.3 33.7 2 50.5 1.9 9 0 18.1-0.2 27.1-1.2 5.9-0.6 11.7-1.5 17.3-3.7 6.8-2.7 10.2-7.6 10.7-14.8 0.4-6.8 0.4-13.7-0.7-20.4-0.8-5-2.3-9.8-5.2-14.1-2.9-4.4-6.9-7.3-11.9-8.8-1.6-0.5-3.2-1.1-4.7-1.7-0.2-0.1-0.4-0.3-0.8-0.7 0.5-0.2 0.9-0.4 1.2-0.4 0.6-0.1 1.3-0.2 1.9-0.2 6.8 0 13.7 0.4 20.3 2.1 8.5 2.2 13.7 7.6 15.5 16 0.9 4.5 1.5 9 2 13.5 1.2 10.4 3.4 20.6 6.1 30.6 2.5 9.4 5.7 18.6 10 27.3 1.3 2.6 2.9 5 4.7 7.3 3.1 3.9 7.4 5.6 12.3 5.9 5.1 0.3 10.1-0.5 15-1.5 10.4-2.3 20.8-2.1 31.2-0.1 19.8 3.8 37.8 11.8 53.9 24.1 7.3 5.6 13.8 11.9 18.4 19.9 4 7 6.7 14.5 8.6 22.3 8.4 35-2.5 72.6-28.4 97.6-11.2 10.8-24.3 18.2-39.4 22.1-11.8 3-23.7 3.3-35.7 2-12.2-1.4-24-4.5-35.2-9.5-10.6-4.7-20.2-10.7-28.4-19-6.2-6.3-10.6-13.7-13.5-22-2.9-8.2-4.6-16.7-5.5-25.4-1.1-11-1-22 0.4-32.9 1.6-13 4.7-25.7 10.7-37.5 1.4-2.7 3-5.2 4.4-7.9 0.6-1 0.9-2.2 1.4-3.4-1.3-0.5-2 0.1-2.6 0.6-2.5 2.1-5 4.1-7.4 6.3-11.4 10.9-22.2 22.4-32.8 34.1-12.6 13.8-24.5 28.2-35.3 43.4-3.8 5.3-7.2 10.8-10.7 16.2-2.5 3.9-4.3 8.1-5.7 12.6-1.5 4.9-3.5 9.7-6.2 14.1-1.2 1.9-2.5 3.8-4.1 5.4-2.8 2.8-5.8 1.9-7-1.8-0.8-2.5-1-5-0.6-7.6 0.5-3.2 1.1-6.4 1.7-9.5 0.7-3.4 1.3-6.7 0.9-10.2-0.6-6.1-4.7-9.6-10.8-9.2-3.5 0.2-6.7 1.1-9.9 2.5-7.6 3.3-14.2 8.1-20.3 13.5-6.3 5.5-11.5 11.9-17.1 18-10.1 10.9-21.6 19.9-35 26.5-6.3 3.1-13 4.6-19.9 5.1-16.2 1.3-31.5-2.2-46.3-8.6-11-4.8-21-11.1-29.9-19-10.7-9.5-18.7-20.7-23.6-34.2-3.5-9.6-6.2-19.3-7.2-29.4-2.2-21.9 2.2-42.3 15.2-60.4 7.3-10.2 16.7-18.1 27.6-24.2 11.3-6.4 23.5-10.2 36.3-12.2 7.6-1.2 15.2-1.6 22.9-1.7 14.3-0.1 28.6-1.2 42.7-3.6 3.2-0.5 6.3-1.3 9.5-2.1 7.1-1.6 11.9-6.1 15.1-12.5 2.6-5.2 3.3-10.6 1.7-16.2-1.8-6.2-6.2-9.7-12.5-10.2-3.2-0.3-6.4-0.2-9.3-1.7-1.4-0.7-2.8-1.4-3.9-2.5-1.1-1-1.9-2.3-2.5-3.7-1-2.4-0.4-4.2 1.7-5.6 1.8-1.2 3.9-2.1 5.9-2.8 5.7-1.9 11.7-2.7 17.7-3.2q11.5-1 23.1-0.3c7.9 0.5 15.8 1.5 23.2 4.6 2 0.9 4 2.1 5.7 3.5 2.8 2.4 2.8 5.4 0 7.7-1.7 1.5-3.8 2.7-5.9 3.6-3 1.3-6.1 2.1-9.2 3.1-0.9 0.3-1.7 0.7-2.6 1.1 0.1 0.3 0.1 0.5 0.1 0.7zm128.8 129.3c0.1 2.2 0.3 6.1 0.6 10.1 0.9 11.2 3.7 21.9 8.8 31.9 6.5 12.6 16 22.3 28.7 28.8 8.4 4.3 17.2 6.6 26.5 7.6 11.1 1.2 22.1 0.4 32.9-2.5 29-8 49.8-33.2 51.9-63 0.8-11.2-0.9-22-5-32.5-4.5-11.6-11.6-21.4-20.4-30.1-12-11.8-26.2-19.5-42.7-22.9-7.6-1.6-15.2-2-22.8-0.2-5.1 1.2-9.7 3.4-13.2 7.5-1.9 2.1-2.4 4.5-2.1 7.2q0.6 4.9 2.4 9.6c3.6 9.7 8.8 18.5 14.7 26.9 2.8 3.9 5.6 7.8 8.2 11.8 3 4.5 5.8 9.1 7.6 14.2 0.5 1.5 0.9 3.1 1 4.7 0.1 1.7-1 2.5-2.6 2.1-1.3-0.4-2.7-0.9-3.8-1.6-2.6-1.8-5.1-3.6-7.4-5.7-6.9-6.1-13-12.9-18.8-20-4.2-5-8.5-9.8-13.4-14.1-3.7-3.2-7.5-6.2-12.2-7.8-5.7-2-10.4-0.2-13.4 5.1-1.5 2.6-2.4 5.4-3.1 8.2-2 7.5-2.2 15.2-2.4 24.7zm-314.7 5.2c0 11.5 2.8 21.9 8.2 31.6 9.8 17.6 24.3 30.4 42.2 39.3 12.5 6.2 25.9 7.5 39.6 4.6 12-2.5 22.5-8 32.1-15.4 8.7-6.6 15.9-14.7 22.8-23 1.8-2.1 3.4-4.4 4.7-6.9 1.8-3.2 1.1-5.5-1.9-7.7-0.2-0.2-0.5-0.4-0.7-0.5-3.3-1.9-6.7-3.7-10.4-4.6-6.1-1.4-12.3-2.9-18.5-4-7.2-1.3-14.5-2.2-21.9-2.4-5.6-0.2-11.2-0.5-16.8-1-2.6-0.2-5.1-0.9-7.6-1.8-3.3-1.2-4.3-3.6-3.6-7 0.7-3.4 2.3-6.4 4.2-9.3 3.8-5.7 7.8-11.4 11.8-17 5.1-7.2 10.4-14.2 15.4-21.4 3.5-5.2 6.5-10.7 8.6-16.6 0.7-2.1 1.1-4.4 1.5-6.6 0.2-1.3-0.3-2.5-1.4-3.3-1.5-1.1-3-2.3-4.6-3.1-5.7-2.9-11.8-3.5-18.1-3.4-8.8 0.2-17.2 2-25.5 4.9-20.2 7.2-36.2 19.7-48.2 37.3-7.6 11.5-11.8 24-11.9 37.3zm249.8-109.4c-10.5 0.1-20.1 0.2-29.7 0.4-6.6 0.1-13.2 0.3-19.7 1.4-2.8 0.4-5.6 1-8.1 2.4-2.4 1.3-3.7 3.3-3.6 6.1 0.1 1.7 0.2 3.4 0.7 5 3.6 12.3 7.3 24.5 11.8 36.5 2.9 7.8 6 15.4 10.3 22.5 2.1 3.5 4.5 6.9 7.7 9.6 4.5 3.8 9.6 5 15.4 3.3 3.8-1.2 7.2-3.2 10.4-5.5 5.9-4.2 11.1-9.3 16.1-14.5 9.8-10.2 18.7-21.2 27.6-32.1 4.4-5.4 8.6-10.9 12.6-16.6 1.6-2.2 2.8-4.8 3.7-7.4 1.3-3.5 0-6-3.3-7.5-1.2-0.6-2.5-1-3.8-1.3-5.6-1.3-11.4-1.6-17.1-1.7-10.7-0.4-21.3-0.5-31-0.6zm-99.9 26.3c0.3 2.1 0.4 4.3 0.8 6.4 1.4 8 4.3 15.6 8.1 22.8 4.8 9.3 8.7 19 12.1 28.9 2 5.9 3.8 11.9 4.5 18.2 0.2 1.6 0.1 3.1 0.4 4.7 1.2 6.9 7 13.4 16.7 12 4.3-0.6 6.3-2.6 6.5-6.9 0.2-3.6-0.5-7-1.3-10.5-2-8.5-4.7-16.7-7.5-24.9-4.6-13.8-9.2-27.5-14.9-40.9-2.4-5.5-4.8-11-8.3-16-1.3-1.9-2.9-3.7-4.6-5.2-2.7-2.3-5.5-2-8 0.5-3.2 3.1-4.8 6.6-4.5 10.9zm-24.4 83.2c5.3 0 10.8-0.6 16.3-2.1 3.9-1.1 7.6-2.5 10.7-5.1 2.2-1.9 3.4-4.1 2.9-7-0.3-1.7-0.5-3.4-1-5.1-3.6-12.1-9.7-22.8-18.2-32.2-0.8-0.9-1.7-1.7-2.7-2.5-2.7-2.1-4.9-2.2-7.5 0-1.6 1.3-3.1 2.9-4.3 4.5-4 5.7-8 11.3-11.8 17.2q-4.2 6.6-6.6 14.1c-0.9 2.8-1.6 5.6-1.6 8.5 0 2.3 0.7 4.1 2.8 5.2 1.8 0.9 3.5 1.8 5.3 2.5 5 1.6 10.2 2.1 15.7 2z"/>
	</g>
</svg>